<svg width="139" height="49" viewBox="0 0 139 49" fill="none" xmlns="http://www.w3.org/2000/svg">
<g filter="url(#filter0_d_3_390)">
<path fill-rule="evenodd" clip-rule="evenodd" d="M117.228 36.8062C124.962 36.8062 131.231 30.5366 131.231 22.8027C131.231 15.0687 124.962 8.7991 117.228 8.7991C109.494 8.7991 103.224 15.0687 103.224 22.8027C103.224 30.5366 109.494 36.8062 117.228 36.8062Z" fill="white"/>
</g>
<path d="M126.078 20.5712C125.67 20.7498 125.235 20.8682 124.782 20.9257C125.248 20.6478 125.604 20.2112 125.771 19.6849C125.337 19.9436 124.857 20.1263 124.346 20.2283C123.933 19.7896 123.345 19.5179 122.703 19.5179C121.458 19.5179 120.456 20.5267 120.456 21.7634C120.456 21.9413 120.471 22.1124 120.508 22.2753C118.639 22.1843 116.985 21.2898 115.874 19.9272C115.68 20.2632 115.566 20.6478 115.566 21.0619C115.566 21.8394 115.967 22.5286 116.565 22.9276C116.204 22.9207 115.849 22.816 115.549 22.6511C115.549 22.6579 115.549 22.6668 115.549 22.6757C115.549 23.7666 116.328 24.6728 117.35 24.8815C117.167 24.9315 116.968 24.9554 116.761 24.9554C116.617 24.9554 116.472 24.9472 116.335 24.9171C116.627 25.8061 117.453 26.4597 118.436 26.481C117.671 27.0784 116.7 27.4384 115.648 27.4384C115.464 27.4384 115.287 27.4302 115.11 27.4076C116.106 28.0489 117.287 28.4151 118.56 28.4151C122.697 28.4151 124.959 24.9931 124.959 22.0269C124.959 21.9277 124.956 21.8318 124.951 21.7367C125.397 21.4205 125.772 21.0256 126.078 20.5712Z" fill="#444444"/>
<g filter="url(#filter1_d_3_390)">
<path fill-rule="evenodd" clip-rule="evenodd" d="M22.0036 36.8062C29.7375 36.8062 36.0071 30.5366 36.0071 22.8027C36.0071 15.0687 29.7375 8.7991 22.0036 8.7991C14.2696 8.7991 8 15.0687 8 22.8027C8 30.5366 14.2696 36.8062 22.0036 36.8062Z" fill="white"/>
</g>
<path fill-rule="evenodd" clip-rule="evenodd" d="M23.7854 21.2613C23.5668 21.1922 23.3154 21.1461 23.0858 21.1461C22.8016 21.1461 22.1894 21.342 22.1894 21.7224V22.6331H23.6433V24.1663H22.1894V28.397H20.7245V24.1663H20.0031V22.6331H20.7245V21.8608C20.7245 20.6965 21.2274 19.7281 22.4408 19.7281C22.8562 19.7281 23.5996 19.7512 24.0041 19.9011L23.7854 21.2613Z" fill="#444444"/>
<g filter="url(#filter2_d_3_390)">
<path fill-rule="evenodd" clip-rule="evenodd" d="M71.0159 39.6083C80.2967 39.6083 87.8202 32.0848 87.8202 22.8041C87.8202 13.5233 80.2967 5.99982 71.0159 5.99982C61.7352 5.99982 54.2117 13.5233 54.2117 22.8041C54.2117 32.0848 61.7352 39.6083 71.0159 39.6083Z" fill="#0A66C2"/>
</g>
<g clip-path="url(#clip0_3_390)">
<path d="M75.6137 16.4572H67.1649C66.1998 16.4572 65.4144 17.2426 65.4144 18.2076V26.6564C65.4144 27.6218 66.1998 28.4069 67.1649 28.4069H75.6137C76.579 28.4069 77.3641 27.6218 77.3641 26.6564V18.2076C77.3641 17.2426 76.579 16.4572 75.6137 16.4572ZM76.6639 26.6564C76.6639 27.2355 76.1927 27.7067 75.6137 27.7067H67.1649C66.5858 27.7067 66.1146 27.2355 66.1146 26.6564V18.2076C66.1146 17.6286 66.5858 17.1574 67.1649 17.1574H75.6137C76.1927 17.1574 76.6639 17.6286 76.6639 18.2076V26.6564Z" fill="white"/>
<path d="M75.2406 17.8799C74.8544 17.8799 74.5402 18.1942 74.5402 18.5804C74.5402 18.9666 74.8544 19.2808 75.2406 19.2808C75.6268 19.2808 75.9411 18.9666 75.9411 18.5804C75.9411 18.1942 75.6268 17.8799 75.2406 17.8799Z" fill="white"/>
<path d="M71.3893 19.2801C69.652 19.2801 68.2385 20.6935 68.2385 22.4309C68.2385 24.1682 69.652 25.5816 71.3893 25.5816C73.1267 25.5816 74.5401 24.1682 74.5401 22.4309C74.5401 20.6935 73.1267 19.2801 71.3893 19.2801ZM71.3893 24.8815C70.038 24.8815 68.9387 23.7822 68.9387 22.4309C68.9387 21.0795 70.038 19.9802 71.3893 19.9802C72.7407 19.9802 73.8399 21.0795 73.8399 22.4309C73.8399 23.7822 72.7407 24.8815 71.3893 24.8815Z" fill="white"/>
</g>
<defs>
<filter id="filter0_d_3_390" x="96.2223" y="3.19768" width="42.0106" height="42.0107" filterUnits="userSpaceOnUse" color-interpolation-filters="sRGB">
<feFlood flood-opacity="0" result="BackgroundImageFix"/>
<feColorMatrix in="SourceAlpha" type="matrix" values="0 0 0 0 0 0 0 0 0 0 0 0 0 0 0 0 0 0 127 0" result="hardAlpha"/>
<feOffset dy="1.40035"/>
<feGaussianBlur stdDeviation="3.50089"/>
<feColorMatrix type="matrix" values="0 0 0 0 0 0 0 0 0 0 0 0 0 0 0 0 0 0 0.1 0"/>
<feBlend mode="normal" in2="BackgroundImageFix" result="effect1_dropShadow_3_390"/>
<feBlend mode="normal" in="SourceGraphic" in2="effect1_dropShadow_3_390" result="shape"/>
</filter>
<filter id="filter1_d_3_390" x="0.998225" y="3.19768" width="42.0106" height="42.0107" filterUnits="userSpaceOnUse" color-interpolation-filters="sRGB">
<feFlood flood-opacity="0" result="BackgroundImageFix"/>
<feColorMatrix in="SourceAlpha" type="matrix" values="0 0 0 0 0 0 0 0 0 0 0 0 0 0 0 0 0 0 127 0" result="hardAlpha"/>
<feOffset dy="1.40035"/>
<feGaussianBlur stdDeviation="3.50089"/>
<feColorMatrix type="matrix" values="0 0 0 0 0 0 0 0 0 0 0 0 0 0 0 0 0 0 0.1 0"/>
<feBlend mode="normal" in2="BackgroundImageFix" result="effect1_dropShadow_3_390"/>
<feBlend mode="normal" in="SourceGraphic" in2="effect1_dropShadow_3_390" result="shape"/>
</filter>
<filter id="filter2_d_3_390" x="47.2099" y="0.398397" width="47.6121" height="47.6121" filterUnits="userSpaceOnUse" color-interpolation-filters="sRGB">
<feFlood flood-opacity="0" result="BackgroundImageFix"/>
<feColorMatrix in="SourceAlpha" type="matrix" values="0 0 0 0 0 0 0 0 0 0 0 0 0 0 0 0 0 0 127 0" result="hardAlpha"/>
<feOffset dy="1.40035"/>
<feGaussianBlur stdDeviation="3.50089"/>
<feColorMatrix type="matrix" values="0 0 0 0 0 0 0 0 0 0 0 0 0 0 0 0 0 0 0.1 0"/>
<feBlend mode="normal" in2="BackgroundImageFix" result="effect1_dropShadow_3_390"/>
<feBlend mode="normal" in="SourceGraphic" in2="effect1_dropShadow_3_390" result="shape"/>
</filter>
<clipPath id="clip0_3_390">
<rect width="11.9497" height="11.9497" fill="white" transform="translate(65.4146 16.4551)"/>
</clipPath>
</defs>
</svg>
